<svg id="Livello_1" xmlns="http://www.w3.org/2000/svg" viewBox="0 0 333.55 76"><style>.st0{fill:#626873}.st1{fill:#43484e}.st3{fill:#fbfdff}.st4{fill:#b1d2eb}.st7{fill:#fff}</style><path class="st0" d="M91.19 35.82h-5.48c-3.1 0-5.63-2.52-5.63-5.62v-9.15c0-3.1 2.52-5.62 5.63-5.62l5.48-.02c.58 0 1.04.47 1.05 1.04 0 .58-.46 1.05-1.04 1.05l-5.48.02c-1.95 0-3.54 1.58-3.54 3.53v9.15c0 1.94 1.59 3.53 3.53 3.53h5.48c.58 0 1.05.47 1.05 1.05 0 .57-.47 1.04-1.05 1.04M106.64 35.84h-6.5c-3.1 0-5.63-2.52-5.63-5.62v-9.16c0-3.1 2.52-5.62 5.63-5.62h2.62c3.1 0 5.63 2.52 5.63 5.62v5.09H98.6a1.05 1.05 0 1 1 0-2.1h7.7v-2.99a3.53 3.53 0 0 0-3.53-3.53h-2.62a3.53 3.53 0 0 0-3.53 3.53v9.16c0 1.95 1.59 3.53 3.53 3.53h6.5c.58 0 1.05.47 1.05 1.05a1.07 1.07 0 0 1-1.06 1.04M168.11 35.74h-3.24c-1.56 0-3-.76-4.07-2.15-1.01-1.31-1.56-3.03-1.56-4.86 0-3.71 2.31-6.3 5.63-6.3h4.61a1.05 1.05 0 1 1 0 2.1h-4.61c-2.11 0-3.53 1.69-3.53 4.21 0 2.71 1.59 4.92 3.53 4.92h3.24a3.53 3.53 0 0 0 3.53-3.53v-9.17c0-1.95-1.59-3.53-3.53-3.53h-6.04a1.05 1.05 0 1 1 0-2.1h6.04c3.1 0 5.63 2.52 5.63 5.62v9.17c-.01 3.09-2.53 5.62-5.63 5.62M150.73 35.84h-3.31c-3.1 0-5.63-2.52-5.63-5.62v-9.17c0-3.1 2.52-5.62 5.63-5.62h4.7a1.05 1.05 0 1 1 0 2.1h-4.7a3.53 3.53 0 0 0-3.53 3.53v9.17a3.53 3.53 0 0 0 3.53 3.53h3.31a3.53 3.53 0 0 0 3.53-3.53V7.31a1.05 1.05 0 1 1 2.1 0v22.9c0 3.11-2.53 5.63-5.63 5.63M118.68 35.84h-6a1.05 1.05 0 1 1 0-2.1h6c1.88 0 3.4-1.52 3.4-3.4 0-1.61-1.14-3.01-2.72-3.33l-2.93-.61a9.35 9.35 0 0 1-1.34-.36 5.529 5.529 0 0 1-3.53-5.13c0-3.03 2.47-5.49 5.5-5.49h4.53a1.05 1.05 0 1 1 0 2.1h-4.53c-1.88 0-3.4 1.52-3.4 3.4 0 1.4.88 2.68 2.19 3.18a8 8 0 0 0 .97.25l.03.01 2.94.61c2.54.52 4.39 2.78 4.39 5.38 0 3.03-2.47 5.49-5.5 5.49M133.33 35.84h-6a1.05 1.05 0 1 1 0-2.1h6c1.88 0 3.4-1.52 3.4-3.4 0-1.61-1.14-3.01-2.72-3.33l-2.93-.61a9.35 9.35 0 0 1-1.34-.36 5.529 5.529 0 0 1-3.53-5.13c0-3.03 2.47-5.49 5.5-5.49h4.53a1.05 1.05 0 1 1 0 2.1h-4.53c-1.88 0-3.4 1.52-3.4 3.4 0 1.4.88 2.68 2.19 3.18a8 8 0 0 0 .97.25l.03.01 2.94.61c2.54.52 4.39 2.78 4.39 5.38a5.508 5.508 0 0 1-5.5 5.49"/><g><path class="st1" d="M-16.18-167.06l6.43 21.8h.5l6.23-22 6.73-23.11c.33-1 .79-1.77 1.36-2.31.57-.54 1.42-.8 2.56-.8h11.65c1 0 1.52.27 1.56.8.03.54-.05 1.11-.25 1.71L.2-129.59c-.34.87-.75 1.57-1.26 2.11-.5.54-1.52.8-3.06.8h-11.35c-1.34 0-2.31-.23-2.91-.7-.6-.47-1.04-1.17-1.31-2.11l-20.29-61.48c-.34-.74-.4-1.34-.2-1.81s.8-.7 1.81-.7h10.75c1.34 0 2.29.2 2.86.6.57.4.99 1.14 1.26 2.21l7.32 23.61zM72.42-152.19c0 2.75-.2 5.66-.6 8.74a21.46 21.46 0 0 1-3.01 8.54c-1.61 2.61-4 4.77-7.18 6.48-3.18 1.71-7.52 2.56-13.01 2.56-5.42 0-9.66-.85-12.71-2.56-3.05-1.71-5.34-3.87-6.88-6.48-1.54-2.61-2.5-5.46-2.86-8.54-.37-3.08-.55-5.99-.55-8.74 0-2.28.23-4.86.7-7.74s1.49-5.61 3.06-8.19c1.57-2.58 3.88-4.74 6.93-6.48 3.05-1.74 7.15-2.61 12.31-2.61s9.31.75 12.46 2.26c3.15 1.51 5.56 3.47 7.23 5.88 1.67 2.41 2.78 5.11 3.32 8.09.53 2.98.79 5.91.79 8.79zm-15.67.6c0-4.22-.49-7.37-1.46-9.44-.97-2.07-3.13-3.11-6.48-3.11-3.08 0-5.14 1.07-6.18 3.21-1.04 2.14-1.56 5.26-1.56 9.34 0 4.42.5 7.63 1.51 9.64 1 2.01 3.01 3.01 6.03 3.01 3.35 0 5.54-1.04 6.58-3.11s1.56-5.25 1.56-9.54zM120.84-132.6c.27 1.14.27 2.03 0 2.66-.27.64-1.14 1.26-2.61 1.86-2.01.74-4.47 1.31-7.38 1.71-2.91.4-5.58.6-7.99.6-5.02 0-9.06-.74-12.1-2.21-3.05-1.47-5.38-3.42-6.98-5.83-1.61-2.41-2.68-5.17-3.21-8.29-.54-3.11-.8-6.31-.8-9.59 0-3.01.28-6.04.85-9.09s1.67-5.79 3.32-8.24c1.64-2.44 3.97-4.42 6.98-5.93 3.01-1.51 7-2.26 11.95-2.26 2.68 0 5.44.18 8.29.55 2.85.37 5.34 1.02 7.48 1.96 1.67.67 2.38 1.91 2.11 3.72l-1.1 6.13c-.27 1.07-.62 1.66-1.05 1.76-.44.1-1.36.08-2.76-.05-2.01-.2-3.92-.37-5.73-.5-1.81-.13-3.52-.2-5.12-.2-3.41 0-5.86.95-7.33 2.86-1.47 1.91-2.21 4.91-2.21 8.99 0 4.89.69 8.25 2.06 10.1 1.37 1.84 3.8 2.76 7.28 2.76 1.41 0 3.23-.07 5.47-.2 2.24-.13 4.44-.33 6.58-.6 1.07-.13 1.79-.13 2.16 0 .37.13.65.74.85 1.81l.99 5.52zM158.72-132.7a24.119 24.119 0 0 1-4.32 3.11c-1.54.87-3.11 1.59-4.72 2.16-1.61.57-3.18.97-4.72 1.21-1.54.23-2.95.35-4.22.35-2.95 0-5.34-.42-7.18-1.26-1.84-.84-3.26-1.92-4.27-3.26-1-1.34-1.69-2.9-2.06-4.67-.37-1.77-.55-3.63-.55-5.58-.07-3.08.35-5.69 1.26-7.83.9-2.14 2.19-3.87 3.87-5.17 1.67-1.31 3.72-2.24 6.13-2.81 2.41-.57 5.09-.85 8.04-.85h11.55v-1.61c0-1.07-.12-1.97-.35-2.71a3.54 3.54 0 0 0-1.31-1.81c-.64-.47-1.52-.82-2.66-1.06-1.14-.23-2.65-.35-4.52-.35-.74 0-1.66.04-2.76.1-1.11.07-2.26.14-3.47.2-1.21.07-2.41.17-3.62.3-1.21.13-2.31.24-3.32.3-1.41.13-2.33.13-2.76 0-.44-.13-.79-.7-1.05-1.71l-1.1-5.22c-.14-.87-.02-1.59.35-2.16.37-.57 1.32-1.16 2.86-1.76 1.14-.4 2.46-.75 3.97-1.06 1.51-.3 3.05-.55 4.62-.75 1.57-.2 3.13-.35 4.67-.45 1.54-.1 2.88-.15 4.02-.15 4.69 0 8.45.44 11.3 1.31 2.85.87 5.02 2.11 6.53 3.72 1.51 1.61 2.49 3.58 2.96 5.93.47 2.35.7 5.02.7 8.04v15.87c0 1.07.05 1.91.15 2.51.1.6.28 1.05.55 1.36.27.3.64.52 1.11.65.47.13 1.1.24 1.91.3.87.07 1.44.22 1.71.45.27.24.4.65.4 1.26v6.43c0 1.34-.97 2.21-2.91 2.61-1.88.47-3.95.7-6.23.7-2.48 0-4.66-.42-6.53-1.26-1.88-.84-3.15-2.59-3.82-5.27l-.21-.11zm-1.51-14.87h-9.04c-1.88 0-3.35.44-4.42 1.31-1.07.87-1.61 2.48-1.61 4.82 0 1.54.32 2.61.96 3.21.64.6 1.82.9 3.57.9 1.54 0 3.33-.37 5.38-1.1 2.04-.74 3.77-1.54 5.17-2.41v-6.73zM199.3-175.5c1.95-.6 3.78-1.04 5.49-1.31 1.71-.27 3.28-.4 4.69-.4 4.43 0 8.03.62 10.78 1.86 2.75 1.24 4.89 2.98 6.4 5.22 1.51 2.24 2.54 4.91 3.07 7.99.54 3.08.81 6.46.81 10.15 0 3.95-.3 7.55-.9 10.8-.6 3.25-1.76 6.01-3.47 8.29-1.71 2.28-4.05 4.04-7.03 5.27-2.98 1.24-6.85 1.86-11.6 1.86-1.67 0-3.45-.07-5.32-.2-1.88-.13-3.72-.32-5.53-.55-1.81-.23-3.55-.54-5.22-.9-1.67-.37-3.15-.82-4.42-1.36-1.27-.54-2.09-1.21-2.46-2.01-.37-.8-.55-1.77-.55-2.91v-61.68c0-.67.15-1.21.45-1.61.3-.4.88-.6 1.75-.6h10.98c.93 0 1.51.25 1.75.75.23.5.35.99.35 1.46v19.88zm15.47 24.31c0-2.48-.15-4.54-.46-6.18-.3-1.64-.76-2.95-1.37-3.92-.61-.97-1.38-1.67-2.33-2.11-.94-.43-2.06-.65-3.34-.65-1.35 0-2.53.07-3.54.2-1.01.13-2.49.44-4.45.9v23.31c1.15.2 2.31.34 3.49.4 1.18.07 2.24.1 3.19.1 1.21 0 2.36-.13 3.44-.4s2.02-.82 2.83-1.66 1.43-2.04 1.87-3.62c.45-1.56.67-3.69.67-6.37zM284.14-127.23c-.3.37-.88.55-1.75.55h-10.98c-.93 0-1.51-.22-1.75-.65-.23-.43-.35-.92-.35-1.46v-2.51c-.07 0-.1-.02-.1-.05 0-.03-.03-.05-.1-.05-2.28 1.74-4.87 3.1-7.79 4.07-2.91.97-5.58 1.46-7.99 1.46-3.55 0-6.31-.54-8.29-1.61-1.98-1.07-3.45-2.49-4.42-4.27-.97-1.77-1.58-3.82-1.81-6.13-.24-2.31-.35-4.74-.35-7.28v-28.83c0-.54.12-1.04.35-1.51.23-.47.82-.7 1.76-.7h11.05c.8 0 1.36.2 1.66.6.3.4.45.94.45 1.61v26.32c0 2.55.45 4.47 1.36 5.78.9 1.31 2.49 1.96 4.77 1.96.8 0 1.64-.12 2.51-.35.87-.23 1.72-.5 2.56-.8.84-.3 1.64-.62 2.41-.96.77-.33 1.42-.6 1.96-.8v-31.14c0-.54.12-1.04.35-1.51.23-.47.81-.7 1.75-.7h10.98c.87 0 1.45.2 1.75.6.3.4.45.94.45 1.61v45.21c.01.65-.14 1.17-.44 1.54zM310-142.05c0 1.41.33 2.28 1 2.61.67.34 1.77.54 3.31.6 1 .07 1.61.17 1.81.3.2.13.37.57.5 1.31l.5 7.53c.07.94-.47 1.67-1.61 2.21-1.21.54-2.61.89-4.22 1.05-1.61.17-2.88.25-3.82.25-4.35 0-7.57-.99-9.64-2.96-2.08-1.97-3.11-5.27-3.11-9.9v-56.36c0-.67.15-1.21.45-1.61.3-.4.89-.6 1.76-.6h10.95c.94 0 1.52.24 1.76.7.23.47.35.97.35 1.51v53.36zM353.9-132.7a24.119 24.119 0 0 1-4.32 3.11c-1.54.87-3.11 1.59-4.72 2.16-1.61.57-3.18.97-4.72 1.21-1.54.23-2.95.35-4.22.35-2.95 0-5.34-.42-7.18-1.26-1.84-.84-3.26-1.92-4.27-3.26-1-1.34-1.69-2.9-2.06-4.67-.37-1.77-.55-3.63-.55-5.58-.07-3.08.35-5.69 1.26-7.83.9-2.14 2.19-3.87 3.87-5.17 1.67-1.31 3.72-2.24 6.13-2.81 2.41-.57 5.09-.85 8.04-.85h11.55v-1.61c0-1.07-.12-1.97-.35-2.71a3.54 3.54 0 0 0-1.31-1.81c-.64-.47-1.52-.82-2.66-1.06-1.14-.23-2.65-.35-4.52-.35-.74 0-1.66.04-2.76.1-1.11.07-2.26.14-3.47.2-1.21.07-2.41.17-3.62.3-1.21.13-2.31.24-3.32.3-1.41.13-2.33.13-2.76 0-.44-.13-.79-.7-1.05-1.71l-1.1-5.22c-.14-.87-.02-1.59.35-2.16.37-.57 1.32-1.16 2.86-1.76 1.14-.4 2.46-.75 3.97-1.06 1.51-.3 3.05-.55 4.62-.75 1.57-.2 3.13-.35 4.67-.45 1.54-.1 2.88-.15 4.02-.15 4.69 0 8.45.44 11.3 1.31 2.85.87 5.02 2.11 6.53 3.72 1.51 1.61 2.49 3.58 2.96 5.93.47 2.35.7 5.02.7 8.04v15.87c0 1.07.05 1.91.15 2.51.1.6.28 1.05.55 1.36.27.3.64.52 1.11.65.47.13 1.1.24 1.91.3.87.07 1.44.22 1.71.45.27.24.4.65.4 1.26v6.43c0 1.34-.97 2.21-2.91 2.61-1.88.47-3.95.7-6.23.7-2.48 0-4.66-.42-6.53-1.26-1.88-.84-3.15-2.59-3.82-5.27l-.21-.11zm-1.51-14.87h-9.04c-1.88 0-3.35.44-4.42 1.31-1.07.87-1.61 2.48-1.61 4.82 0 1.54.32 2.61.96 3.21.64.6 1.82.9 3.57.9 1.54 0 3.33-.37 5.38-1.1 2.04-.74 3.77-1.54 5.17-2.41v-6.73zM396.19-169.27l.2.2c.87-.94 1.92-1.82 3.16-2.66a39.52 39.52 0 0 1 3.87-2.31c1.34-.7 2.66-1.29 3.97-1.76s2.49-.8 3.57-1c1.07-.13 1.86-.1 2.36.1.5.2.82.94.96 2.21l1.21 9.84c.07.47.1.85.1 1.16 0 .3-.1.57-.3.8-.2.24-.5.44-.9.6-.4.17-.97.32-1.71.45-6.03 1.14-11.52 2.58-16.48 4.32v28.43c0 .54-.12 1.04-.35 1.51-.23.47-.81.7-1.75.7h-10.98c-.87 0-1.45-.2-1.75-.6-.3-.4-.45-.94-.45-1.61v-45.21c0-.67.15-1.21.45-1.61.3-.4.88-.6 1.75-.6H394c.93 0 1.53.25 1.8.75s.4.99.4 1.46v4.83zM436.88-189.36c0 .94-.1 1.86-.3 2.76-.2.9-.59 1.71-1.16 2.41-.57.7-1.37 1.27-2.41 1.71-1.04.44-2.4.65-4.07.65-1.74 0-3.15-.22-4.22-.65-1.07-.43-1.89-1.02-2.46-1.76-.57-.74-.94-1.54-1.11-2.41-.17-.87-.25-1.77-.25-2.71 0-2.08.54-3.83 1.61-5.27 1.07-1.44 3.21-2.16 6.43-2.16 1.61 0 2.93.18 3.97.55 1.04.37 1.86.89 2.46 1.56.6.67 1 1.46 1.21 2.36.2.9.3 1.89.3 2.96zm-.51 60.47c0 .54-.12 1.04-.35 1.51-.24.47-.79.7-1.66.7h-11.05c-.87 0-1.46-.2-1.76-.6-.3-.4-.45-.94-.45-1.61v-45.21c0-.74.15-1.29.45-1.66.3-.37.89-.55 1.76-.55h11.05c.87 0 1.42.25 1.66.75.23.5.35.99.35 1.46v45.21zM461.79-147.87c.07 1.94.37 3.52.9 4.72.54 1.21 1.25 2.16 2.16 2.86.9.7 2.01 1.17 3.32 1.41s2.79.35 4.47.35c1.54 0 3.38-.1 5.53-.3 2.14-.2 4.25-.43 6.33-.7 1.34-.13 2.17-.12 2.51.05.33.17.64.89.9 2.16l.8 4.72c.2 1.14.2 2.03 0 2.66-.2.64-1.07 1.26-2.61 1.86-1 .34-2.19.65-3.57.95-1.37.3-2.78.55-4.22.75-1.44.2-2.9.35-4.37.45-1.47.1-2.81.15-4.02.15-5.02 0-9.09-.7-12.21-2.11-3.11-1.41-5.53-3.27-7.23-5.58-1.71-2.31-2.86-4.99-3.47-8.04-.6-3.05-.9-6.24-.9-9.59 0-2.41.2-5.12.6-8.14.4-3.01 1.37-5.86 2.91-8.54 1.54-2.68 3.83-4.92 6.88-6.73 3.05-1.81 7.22-2.71 12.51-2.71 4.82 0 8.71.69 11.65 2.06 2.95 1.37 5.24 3.16 6.88 5.37 1.64 2.21 2.76 4.67 3.37 7.38.6 2.71.9 5.41.9 8.09 0 2.08-.39 3.67-1.16 4.77-.77 1.1-2.23 1.66-4.37 1.66h-24.49zm7.23-17.58c-2.34 0-4.07.72-5.17 2.16-1.11 1.44-1.73 3.57-1.86 6.38h13.96c0-2.41-.5-4.44-1.51-6.08-1-1.64-2.81-2.46-5.42-2.46zM539.84-142.3c0 3.14-.62 5.76-1.86 7.87-1.24 2.11-2.9 3.79-4.97 5.06-2.08 1.27-4.44 2.19-7.08 2.76-2.65.57-5.41.85-8.29.85-1.21 0-2.51-.05-3.92-.15-1.41-.1-2.83-.25-4.27-.45-1.44-.2-2.81-.43-4.12-.7-1.31-.27-2.46-.56-3.47-.9-1.67-.6-2.75-1.21-3.21-1.84-.47-.63-.54-1.61-.2-2.94l1.1-4.78c.2-.94.5-1.5.9-1.7.4-.2 1.17-.2 2.31 0 2.34.4 4.89.72 7.63.95 2.75.24 4.99.35 6.73.35 2.54 0 4.35-.28 5.42-.86 1.07-.57 1.61-1.53 1.61-2.87 0-1.48-.4-2.47-1.21-2.97-.8-.5-2.28-.89-4.42-1.16-2.75-.4-5.31-.87-7.68-1.41-2.38-.54-4.47-1.34-6.28-2.42a11.744 11.744 0 0 1-4.27-4.33c-1.04-1.81-1.56-4.2-1.56-7.15 0-2.68.52-5.03 1.55-7.05 1.03-2.01 2.45-3.69 4.24-5.04 1.79-1.34 3.94-2.35 6.44-3.02 2.5-.67 5.22-1.01 8.17-1.01 1.14 0 2.39.05 3.77.15 1.37.1 2.76.24 4.17.4 1.41.17 2.76.39 4.07.66 1.31.27 2.49.61 3.57 1.01 1.34.47 2.33.96 2.96 1.47.63.51.79 1.4.45 2.69l-1.1 5.17c-.27.94-.55 1.51-.85 1.71-.3.2-1.02.24-2.16.1-1.14-.13-2.38-.28-3.72-.45-1.34-.17-2.66-.3-3.97-.4-1.31-.1-2.53-.18-3.67-.25-1.14-.07-2.11-.1-2.91-.1-2.55-.07-4.14.22-4.77.85-.64.63-.95 1.49-.95 2.55 0 1.27.59 2.09 1.76 2.46 1.18.37 2.67.72 4.49 1.05 2.62.33 5.11.75 7.46 1.25 2.35.5 4.42 1.32 6.2 2.46 1.78 1.14 3.21 2.66 4.29 4.56 1.08 1.91 1.62 4.43 1.62 7.57z"/></g><g><path d="M66.91 27.32l-9.93-9.93c-.06-.06-.12-.11-.18-.17l-7.77-7.7c-6.79-6.79-17.82-6.79-24.6-.02l-8.57 8.57-8.01 8.01a17.323 17.323 0 0 0-4.37 7.34c-1.74 5.92-.28 12.6 4.39 17.26l9.93 9.93c.06.06.12.11.18.16l7.77 7.71c6.79 6.79 17.82 6.79 24.6.01l16.58-16.58c6.77-6.77 6.77-17.81-.02-24.59" fill="#a0cae7"/><path class="st3" d="M36.72 4.43c-4.45 0-8.9 1.69-12.29 5.08 3.39-3.39 7.84-5.08 12.29-5.08 4.46 0 8.92 1.7 12.31 5.09l7.77 7.71c.06.05.12.11.18.16l5.13 5.13v-.01l-5.12-5.12c-.06-.06-.12-.11-.18-.16l-7.77-7.71a17.4 17.4 0 0 0-12.32-5.09m-33.23 29c-.01.02-.01.05-.02.07.01-.03.01-.05.02-.07m-.02.08c-.01.02-.01.03-.02.05.01-.01.01-.03.02-.05m-.02.07c-.01.02-.01.03-.01.05 0-.01 0-.03.01-.05m-.02.07c-.01.02-.01.03-.02.05.01-.01.01-.03.02-.05m-.02.07c-.01.02-.01.03-.01.05 0-.02 0-.03.01-.05m-.02.07c-.01.02-.01.03-.01.05 0-.02 0-.04.01-.05m-.02.07c0 .02-.01.03-.01.05 0-.02.01-.04.01-.05m-.02.07c-.01.02-.01.03-.01.05 0-.02.01-.04.01-.05m-.02.06c-.01.02-.01.04-.01.06.01-.02.01-.04.01-.06m-.01.07c0 .02-.01.04-.01.06 0-.02 0-.04.01-.06m-.02.07c-.01.02-.01.04-.02.06.01-.02.02-.04.02-.06m-.02.07c-.04.14-.07.28-.1.42.04-.15.07-.28.1-.42m-.1.43c-.01.02-.01.04-.01.06 0-.03.01-.05.01-.06m-.01.07c0 .02-.01.04-.01.05 0-.02 0-.04.01-.05m-.02.07c0 .02-.01.03-.01.05.01-.02.01-.03.01-.05m-.01.07c0 .02-.01.03-.01.05 0-.02 0-.04.01-.05m-.02.07c0 .02-.01.03-.01.05.01-.02.01-.04.01-.05m-.01.07c0 .02-.01.03-.01.04 0-.01.01-.02.01-.04m-.01.07c0 .02-.01.03-.01.04 0-.01 0-.03.01-.04m-.02.07c0 .02-.01.03-.01.04.01-.01.01-.03.01-.04m-.01.07c0 .02-.01.03-.01.04.01-.02.01-.03.01-.04m-.01.07c0 .01-.01.02-.01.03 0-.01.01-.02.01-.03m-.01.07c0 .01 0 .01-.01.02 0-.01 0-.02.01-.02M2.99 35.65v0M2.96 35.86"/><path class="st4" d="M36.72 4.43c-4.45 0-8.9 1.69-12.29 5.08l-8.57 8.57-8.01 8.01a17.364 17.364 0 0 0-.87.94l3.4-3.4 8.57-8.57c3.39-3.39 7.84-5.08 12.29-5.08 4.46 0 8.92 1.7 12.31 5.09l7.77 7.71c.06.06.12.11.18.16l9.93 9.93c1.97 1.97 3.36 4.29 4.19 6.76 1.92-5.76.75-12.33-3.51-17.11l-5.13-5.13c-.06-.06-.12-.11-.18-.16l-7.77-7.71a17.36 17.36 0 0 0-12.31-5.09M3.59 33.11c-.01.03-.02.06-.03.1.01-.04.02-.07.03-.1m-.04.11l-.03.09.03-.09m-.03.11c-.01.03-.02.06-.03.1.01-.04.02-.07.03-.1"/><path class="st3" d="M3.56 33.2c0 .01-.01.01-.01.02 0 0 .01-.01.01-.02m-.04.11c0 .01 0 .01-.01.02.01-.01.01-.01.01-.02m46.18 35.8c-3.3 2.98-7.47 4.46-11.64 4.46 4.17 0 8.34-1.49 11.64-4.46"/><path class="st4" d="M3.47 33.5c0 .01 0 .01-.01.02.01-.01.01-.02.01-.02m-.02.06c0 .01-.01.01-.01.02.01 0 .01-.01.01-.02m-.02.07c0 .01-.01.01-.01.02.01 0 .01-.01.01-.02m-.02.07c0 .01 0 .01-.01.02.01-.01.01-.01.01-.02m-.02.07c0 .01-.01.01-.01.02.01-.01.01-.01.01-.02m-.01.06c0 .01-.01.02-.01.02s0-.01.01-.02m-.02.08c0 .01 0 .01-.01.02 0-.01.01-.02.01-.02m-.02.07c0 .01 0 .01-.01.02.01-.01.01-.02.01-.02m-.02.07v0m-.02.07v0m-.01.07s-.01 0 0 0c-.01 0 0 0 0 0m-.1.42v.01c-.01 0-.01 0 0-.01m-.02.07c0 .01 0 .01-.01.02.01-.01.01-.01.01-.02m-.01.07c0 .01 0 .01-.01.02 0-.01 0-.01.01-.02m-.02.07v0m-.01.06c0 .01 0 .02-.01.03.01-.01.01-.02.01-.03m-.01.07c0 .01-.01.02-.01.03 0-.01 0-.02.01-.03m-.02.07c0 .01 0 .02-.01.03.01-.01.01-.02.01-.03m-.01.07c0 .01-.01.02-.01.03.01-.01.01-.02.01-.03m-.01.07c0 .01-.01.02-.01.03 0-.01 0-.02.01-.03m-.02.07c0 .01-.01.02-.01.03.01-.01.01-.02.01-.03m-.01.06c0 .01 0 .03-.01.04.01-.02.01-.03.01-.04m-.01.06c-.01.08-.03.16-.04.24.01-.08.03-.16.04-.24m-.04.24c0 .02-.01.04-.01.06 0-.02.01-.04.01-.06m-.01.07c-.01.02-.01.04-.01.06 0-.02 0-.04.01-.06m-.01.07c-.01.02-.01.04-.01.06 0-.02 0-.04.01-.06m-.01.06c0 .02-.01.04-.01.06 0-.01.01-.04.01-.06m-.01.07c-.12.84-.18 1.69-.18 2.54.01 4.45 1.7 8.9 5.09 12.29l9.93 9.93c.06.06.12.11.18.16l7.77 7.71c3.4 3.39 7.85 5.09 12.31 5.09 4.17 0 8.34-1.49 11.64-4.47.22-.2.44-.4.65-.61l11.77-11.77c4.25-4.77 5.42-11.33 3.5-17.09-.82 2.46-2.22 4.78-4.17 6.74L44.87 62.94c-3.39 3.39-7.84 5.08-12.29 5.08-4.46 0-8.92-1.7-12.31-5.09l-7.77-7.71c-.06-.05-.12-.1-.18-.16l-5.34-5.33C3.6 45.8 2.26 40.71 2.96 35.86"/><path d="M31.24 9.98c-4.45 0-8.9 1.69-12.29 5.08l-8.57 8.57-3.4 3.4a17.227 17.227 0 0 0-3.4 6.08v.01c-.01.03-.02.06-.03.1 0 .01-.01.01-.01.02l-.03.09c0 .01-.01.01-.01.02-.01.03-.02.06-.03.1-.01.02-.01.05-.02.07 0 .01 0 .01-.01.02-.01.02-.01.04-.02.05 0 .01 0 .02-.01.02-.01.02-.01.03-.01.05 0 .01-.01.02-.01.02-.01.02-.01.03-.02.05 0 .01 0 .01-.01.02-.01.02-.01.04-.01.05 0 .01-.01.01-.01.02-.01.02-.01.03-.01.05 0 .01-.01.02-.01.02 0 .02-.01.03-.01.05 0 .01 0 .01-.01.02-.01.02-.01.04-.01.05 0 .01 0 .01-.01.02 0 .02-.01.04-.01.06v.01c-.01.02-.01.04-.02.06v.01c-.01.02-.01.04-.02.06v.01c-.03.14-.07.28-.1.41v.01c-.01.02-.01.04-.01.06 0 .01 0 .01-.01.02 0 .02-.01.04-.01.05 0 .01 0 .01-.01.02 0 .02-.01.03-.01.05 0 .01 0 .01-.01.02 0 .02-.01.03-.01.05 0 .01-.01.02-.01.03 0 .02-.01.03-.01.04 0 .01 0 .02-.01.03 0 .02-.01.03-.01.04 0 .01 0 .02-.01.03 0 .02-.01.03-.01.05 0 .01-.01.02-.01.03 0 .02-.01.03-.01.04 0 .01-.01.02-.01.03 0 .02-.01.03-.01.04 0 .01-.01.02-.01.03 0 .01-.01.02-.01.03 0 .01-.01.02-.01.04 0 .01 0 .01-.01.02.11.01.09.1.08.18v.01c0 .02-.01.04-.01.06v.01c-.01.02-.01.04-.01.06v.01c-.01.02-.01.04-.01.06v.01c-.01.02-.01.04-.01.06-.7 4.85.64 9.94 4.03 13.87l5.34 5.33c.06.06.12.11.18.16l7.77 7.71c3.39 3.4 7.85 5.09 12.31 5.09 4.45 0 8.9-1.69 12.29-5.08l16.58-16.58c1.96-1.96 3.35-4.27 4.17-6.74-.83-2.47-2.22-4.79-4.19-6.76l-9.93-9.93c-.06-.06-.12-.11-.18-.16l-7.77-7.71a17.4 17.4 0 0 0-12.32-5.09m6.83 54.05c-2.11 0-4.1-.82-5.58-2.31l-9.92-9.84-.12-.1-.04-.06-7.78-7.78a7.821 7.821 0 0 1-2.16-4.06c-.5-2.57.3-5.21 2.15-7.05l8.01-8.01 8.57-8.57a7.775 7.775 0 0 1 5.53-2.28c2.11 0 4.1.82 5.58 2.31l9.92 9.84.03.02.05.06 7.87 7.87a7.799 7.799 0 0 1 2.3 5.55c.01 2.1-.81 4.07-2.29 5.55L43.6 61.75a7.792 7.792 0 0 1-5.53 2.28" fill="#bbd7ed"/><path d="M38.07 63.13a6.96 6.96 0 0 1-4.95-2.05l-9.97-9.88-7.9-7.9a6.996 6.996 0 0 1-1.91-3.59c-.44-2.28.27-4.61 1.9-6.24l16.58-16.58c1.3-1.31 3.04-2.02 4.9-2.02 1.87 0 3.63.73 4.95 2.05l9.94 9.86.11.1.02.03 7.79 7.79c2.71 2.71 2.72 7.12.01 9.83L42.96 61.11a6.875 6.875 0 0 1-4.89 2.02" fill="#74c0eb"/><path class="st7" d="M36.71 13.97c-2.09 0-4.06.81-5.53 2.29l-8.57 8.57-8.01 8.01a7.847 7.847 0 0 0 .01 11.1l7.78 7.79.04.06.12.1 9.92 9.84a7.836 7.836 0 0 0 5.58 2.31c2.09 0 4.06-.81 5.53-2.29l16.58-16.58a7.79 7.79 0 0 0 2.29-5.55c0-2.1-.82-4.07-2.3-5.55l-7.87-7.87-.05-.06-.03-.02-9.92-9.84a7.779 7.779 0 0 0-5.57-2.31m0 1.8c1.56 0 3.12.59 4.31 1.79L51 27.45l7.89 7.89a6.06 6.06 0 0 1 .02 8.56L42.32 60.47a6.003 6.003 0 0 1-4.26 1.76c-1.56 0-3.12-.6-4.32-1.79l-9.97-9.89-7.89-7.89a6.003 6.003 0 0 1-1.66-3.12c-.37-1.91.18-3.96 1.65-5.43l8.01-8.01 8.57-8.57a5.995 5.995 0 0 1 4.26-1.76"/><path class="st7" d="M33.93 47.22h-8.27c-1.4 0-2.53-1.13-2.53-2.51v-5.15c0-.27-.21-.48-.48-.48s-.48.21-.48.48v5.15c0 1.91 1.57 3.47 3.49 3.47h8.27c.27 0 .48-.21.48-.48 0-.26-.22-.48-.48-.48zM51.89 44.65a.47.47 0 0 0-.54.41c-.18 1.24-1.31 2.17-2.64 2.17h-5.73c-.27 0-.48.21-.48.48s.21.48.48.48h5.73c.88 0 1.72-.3 2.38-.86.66-.55 1.09-1.31 1.21-2.14a.49.49 0 0 0-.41-.54z"/><path class="st7" d="M34.62 45.86c-3.38-1.01-6.17-1.2-7.91-1.17h-.02c-.37 0-.72-.14-.98-.4a1.31 1.31 0 0 1-.39-.93V30.85c0-.46.18-.91.5-1.25.33-.34.77-.55 1.25-.59 1.52-.12 3.03-.07 4.48.14 1.86.27 3.58.81 5.11 1.59V44.5c0 .27.21.48.48.48s.48-.21.48-.48V30.76c3.77-1.96 7.85-1.93 9.98-1.73.8.08 1.4.72 1.4 1.5v2.51c0 .27.21.48.48.48s.48-.21.48-.48v-1c.85.43 1.4 1.28 1.4 2.21 0 .27.21.48.48.48s.48-.21.48-.48c0-1.45-.95-2.75-2.36-3.25v-.46c0-.62-.23-1.21-.66-1.66-.42-.45-1-.74-1.62-.79-1.11-.1-2.84-.18-4.78.08-2.1.27-4.03.87-5.75 1.76-1.64-.85-3.48-1.43-5.47-1.72-1.52-.22-3.1-.27-4.69-.15-.72.06-1.38.37-1.88.89-.49.52-.77 1.2-.77 1.91v.18c-.02.01-.04.01-.06.02-.82.35-1.48.98-1.84 1.8a.473.473 0 0 0 .43.67c.18 0 .36-.11.44-.29.22-.48.57-.88 1.03-1.15v1.96h-1.72c-.27 0-.48.21-.48.48v1.54c0 .27.21.48.48.48h1.72v1.02H23.1v-.19c0-.27-.21-.48-.48-.48s-.48.21-.48.48v.67c0 .27.21.48.48.48h1.72v4.82c0 .61.24 1.18.68 1.62.45.44 1.05.68 1.68.67 1.68-.02 4.36.16 7.62 1.13.05.01.09.02.14.02.21 0 .4-.13.46-.34.1-.25-.05-.52-.3-.59z"/><path class="st7" d="M46.76 31.44a.48.48 0 1 0 .04-.96c-1.89-.08-4.75.06-7.62 1.16a.481.481 0 1 0 .34.9c2.72-1.05 5.44-1.18 7.24-1.1zM42.8 34.04a.493.493 0 0 0-.56-.39c-1.07.2-2.1.48-3.06.85a.481.481 0 1 0 .34.9c.91-.35 1.88-.62 2.89-.8.26-.05.43-.3.39-.56zM40.61 37.38a.48.48 0 0 0-.6-.31c-.29.09-.57.19-.85.3-.25.1-.37.37-.28.62a.485.485 0 0 0 .62.28c.26-.1.53-.2.8-.28.26-.08.39-.35.31-.61zM39.67 40.05c-.18.06-.36.13-.53.19-.25.1-.37.37-.28.62a.485.485 0 0 0 .62.28c.16-.06.33-.13.5-.18.25-.09.38-.36.3-.61a.489.489 0 0 0-.61-.3zM34.89 31.59c-2.83-1.05-5.63-1.18-7.49-1.11a.48.48 0 0 0-.46.5c.01.26.24.47.5.46 1.76-.07 4.43.05 7.11 1.05a.485.485 0 0 0 .62-.28.477.477 0 0 0-.28-.62zM34.72 35.38c.19 0 .38-.12.45-.31a.485.485 0 0 0-.28-.62c-2.83-1.05-5.63-1.18-7.49-1.11a.48.48 0 0 0-.46.5c.01.26.24.47.5.46 1.76-.07 4.43.05 7.11 1.05.06.02.11.03.17.03zM27.4 36.21a.48.48 0 0 0-.46.5c.01.26.24.47.5.46 1.86-.08 3.65.09 5.32.5a.49.49 0 0 0 .58-.36.476.476 0 0 0-.35-.58c-1.76-.42-3.64-.6-5.59-.52zM34.89 37.32c-.16-.06-.33-.12-.5-.18a.489.489 0 0 0-.61.3c-.08.25.05.52.3.61.16.05.31.11.47.17a.485.485 0 0 0 .62-.28.481.481 0 0 0-.28-.62zM34.89 40.18c-2.83-1.05-5.63-1.18-7.49-1.1a.48.48 0 0 0 .04.96c1.76-.07 4.43.05 7.11 1.05a.485.485 0 0 0 .62-.28.488.488 0 0 0-.28-.63zM34.89 43.05c-2.83-1.05-5.63-1.18-7.49-1.11a.48.48 0 0 0 .04.96c1.76-.07 4.43.05 7.11 1.05a.485.485 0 0 0 .62-.28.481.481 0 0 0-.28-.62z"/><path class="st7" d="M46.89 45.81c3.33 0 6.04-2.71 6.04-6.04s-2.71-6.04-6.04-6.04-6.04 2.71-6.04 6.04c0 1.91.89 3.62 2.29 4.73l-5.27 4.82a.835.835 0 0 1-1.17-.06.835.835 0 0 1 .06-1.17l3.36-3.15c.16-.15.17-.4.02-.55a.384.384 0 0 0-.55-.02l-3.36 3.15c-.32.29-.51.68-.53 1.11a1.62 1.62 0 0 0 1.61 1.71c.39 0 .77-.14 1.08-.41l5.4-4.94c.92.51 1.97.82 3.1.82zm-5.25-6.04c0-2.9 2.36-5.25 5.25-5.25 2.9 0 5.25 2.36 5.25 5.25a5.25 5.25 0 1 1-10.5 0z"/><path class="st7" d="M46.89 44.02a4.26 4.26 0 0 0 3.01-7.26.405.405 0 0 0-.56 0c-.15.15-.15.4 0 .56a3.45 3.45 0 0 1 1.02 2.45c0 1.91-1.55 3.47-3.47 3.47-.93 0-1.8-.36-2.45-1.02a.405.405 0 0 0-.56 0c-.15.15-.15.4 0 .56.81.8 1.88 1.24 3.01 1.24z"/></g><path fill="none" d="M-6.45-87.3h1.78v3.11h-1.78z"/><g><path class="st1" d="M120.43 60.41h.08l2.05-6.45 2.65-8.32c.07-.25.25-.38.54-.38h1.35c.23 0 .31.14.22.43l-5.64 17.06c-.07.25-.25.38-.54.38h-1.4c-.16 0-.28-.03-.35-.08s-.13-.14-.16-.27l-5.67-17.12c-.09-.27-.01-.41.24-.41h1.38c.16 0 .28.03.35.08.07.05.13.15.16.3l2.7 8.32 2.04 6.46zM138.09 56.33c0 .79-.04 1.6-.13 2.43-.09.83-.32 1.58-.69 2.27-.37.68-.93 1.24-1.68 1.67-.75.43-1.79.65-3.12.65-1.29 0-2.3-.22-3.03-.65-.73-.43-1.27-.99-1.63-1.66-.36-.67-.58-1.43-.66-2.27s-.12-1.65-.12-2.44c0-.65.05-1.36.16-2.13.11-.77.35-1.49.71-2.16.37-.67.91-1.22 1.63-1.66.72-.44 1.7-.66 2.94-.66s2.23.19 2.98.58c.75.39 1.32.89 1.71 1.51s.65 1.33.77 2.12.16 1.59.16 2.4zm-2.08.17c0-.83-.05-1.55-.14-2.17s-.27-1.13-.53-1.54c-.26-.4-.62-.71-1.08-.92-.46-.21-1.06-.31-1.79-.31-.7 0-1.27.1-1.7.31-.43.21-.77.52-1.03.93-.25.41-.42.92-.51 1.54-.09.61-.13 1.33-.13 2.15 0 .83.04 1.54.13 2.15.09.61.26 1.12.51 1.54s.59.72 1.03.93c.43.21 1 .31 1.7.31.74 0 1.34-.1 1.79-.3s.82-.5 1.08-.9c.26-.4.44-.92.53-1.53s.14-1.34.14-2.19zM149.4 62.73c-.5.23-1.14.4-1.9.49-.77.09-1.49.13-2.17.13-1.19 0-2.14-.18-2.85-.54-.71-.36-1.26-.85-1.65-1.48-.39-.63-.64-1.36-.76-2.19-.12-.83-.18-1.72-.18-2.67 0-.86.06-1.7.18-2.51.12-.81.37-1.53.76-2.16.39-.63.94-1.13 1.65-1.51.71-.38 1.66-.57 2.85-.57a20.868 20.868 0 0 1 2.04.12c.37.05.73.11 1.09.19.36.08.68.18.97.31.14.05.23.13.26.24.03.11.03.22.01.32l-.11.62c-.04.14-.12.23-.26.27s-.28.04-.45.03c-.56-.05-1.17-.11-1.85-.17s-1.26-.09-1.74-.09c-.61 0-1.13.09-1.54.26s-.74.45-.99.82-.42.88-.53 1.5c-.11.62-.16 1.39-.16 2.31 0 .99.05 1.81.16 2.46.11.65.29 1.17.54 1.55.25.39.58.66 1 .82s.92.24 1.51.24c.22 0 .48-.01.8-.03.32-.02.64-.04.97-.07.33-.03.67-.05 1.01-.08.34-.03.65-.06.92-.09.16-.02.29-.01.39.03.1.04.17.14.2.32l.11.57c.07.24-.03.43-.28.56zM159.39 61.67c-.67.4-1.41.77-2.23 1.13-.82.36-1.77.54-2.85.54-1.31 0-2.25-.31-2.81-.94-.56-.63-.84-1.56-.84-2.78 0-1.53.39-2.67 1.16-3.42.77-.75 2.06-1.12 3.86-1.12h3.73v-.92c0-.99-.23-1.67-.69-2.05s-1.28-.57-2.47-.57c-.25 0-.54 0-.85.01-.32.01-.64.03-.99.05-.34.03-.68.05-1.03.08s-.66.06-.95.09c-.31.05-.49-.03-.54-.24l-.16-.7a.351.351 0 0 1 .04-.32c.06-.09.19-.18.39-.27.27-.09.59-.17.97-.24.38-.07.77-.13 1.19-.18.41-.04.82-.08 1.23-.09.4-.02.77-.03 1.09-.03 1.08 0 1.94.12 2.58.35.64.23 1.13.56 1.47.97s.55.92.64 1.51c.09.59.14 1.25.14 1.97v5.97c0 .27.01.48.04.62s.07.25.13.32.16.12.28.15c.13.03.3.05.51.07.31.02.46.14.46.35v.67c0 .13-.04.23-.11.31s-.22.14-.43.18c-.32.05-.64.08-.95.08-.64 0-1.11-.12-1.41-.35-.3-.23-.5-.64-.59-1.21h-.01zm.03-4.88h-3.97c-.83 0-1.48.19-1.97.57s-.73 1.11-.73 2.19c0 .76.15 1.27.45 1.54.3.27.84.4 1.63.4.34 0 .72-.04 1.12-.13.4-.09.81-.21 1.23-.36.41-.15.81-.32 1.2-.5.39-.18.73-.36 1.04-.54v-3.17zM175.24 56.46c0 1.12-.08 2.1-.26 2.96-.17.86-.47 1.58-.89 2.16s-.99 1.03-1.7 1.34-1.61.46-2.69.46c-.41 0-.85-.01-1.31-.04-.46-.03-.91-.07-1.36-.12s-.87-.12-1.27-.2c-.4-.08-.75-.18-1.05-.28-.31-.11-.49-.26-.55-.47-.06-.21-.09-.41-.09-.61V44.61c0-.2.03-.33.09-.39s.18-.09.36-.09h1.12c.2 0 .32.04.39.11.06.07.09.2.09.38v5.86l.03.05c.81-.31 1.53-.52 2.17-.63s1.19-.18 1.68-.18c1.05 0 1.91.16 2.6.47.69.31 1.22.77 1.61 1.36.39.59.66 1.31.81 2.13.14.83.22 1.76.22 2.78zm-2.16.26c0-.94-.05-1.74-.15-2.4-.1-.66-.27-1.19-.5-1.6-.23-.41-.54-.7-.92-.88-.38-.18-.85-.27-1.41-.27-.58 0-1.21.05-1.9.15-.69.1-1.37.25-2.06.45v9.01c.52.09 1.09.16 1.69.2.61.04 1.2.07 1.78.07.52 0 1-.05 1.44-.15.43-.1.8-.32 1.1-.65.3-.33.53-.81.69-1.43.16-.62.24-1.45.24-2.5zM187.63 63.13h-1.11c-.32 0-.49-.15-.49-.46v-.95l-.05-.05c-.22.14-.5.32-.85.51a10.797 10.797 0 0 1-2.47 1.03c-.47.13-.95.19-1.43.19-.88 0-1.58-.13-2.11-.38-.52-.25-.92-.6-1.2-1.04-.28-.44-.46-.97-.54-1.58-.08-.61-.12-1.28-.12-2v-7.97c0-.31.16-.46.46-.46h1.18c.29 0 .44.15.44.46v7.99c0 .63.04 1.14.11 1.54.07.4.19.71.36.95.17.23.4.4.69.49.29.09.64.13 1.05.13.32 0 .7-.06 1.13-.19.43-.13.86-.27 1.29-.43.43-.16.83-.33 1.21-.51s.67-.32.89-.43v-9.53c0-.31.15-.46.46-.46h1.11c.31 0 .46.15.46.46v12.23c-.01.31-.16.46-.47.46zM194.76 62.51c.02.22-.07.37-.27.46-.22.09-.46.16-.72.22-.26.05-.51.08-.74.08-.45 0-.82-.05-1.11-.16-.29-.11-.51-.26-.68-.45-.16-.19-.27-.42-.34-.7a4.29 4.29 0 0 1-.09-.9V44.58c0-.31.15-.46.46-.46h1.08c.16 0 .28.03.36.08.08.05.12.18.12.38v15.79c0 .47.1.75.3.85.2.1.55.15 1.05.15.29 0 .44.09.46.27l.12.87zM204.53 61.67c-.67.4-1.41.77-2.23 1.13-.82.36-1.77.54-2.85.54-1.31 0-2.25-.31-2.81-.94-.56-.63-.84-1.56-.84-2.78 0-1.53.39-2.67 1.16-3.42.77-.75 2.06-1.12 3.86-1.12h3.73v-.92c0-.99-.23-1.67-.69-2.05s-1.28-.57-2.47-.57c-.25 0-.54 0-.85.01-.32.01-.64.03-.99.05-.34.03-.68.05-1.03.08s-.66.06-.95.09c-.31.05-.49-.03-.54-.24l-.16-.7a.351.351 0 0 1 .04-.32c.06-.09.19-.18.39-.27.27-.09.59-.17.97-.24.38-.07.77-.13 1.19-.18.41-.04.82-.08 1.23-.09.4-.02.77-.03 1.09-.03 1.08 0 1.94.12 2.58.35.64.23 1.13.56 1.47.97s.55.92.64 1.51c.09.59.14 1.25.14 1.97v5.97c0 .27.01.48.04.62s.07.25.13.32.16.12.28.15c.13.03.3.05.51.07.31.02.46.14.46.35v.67c0 .13-.04.23-.11.31s-.22.14-.43.18c-.32.05-.64.08-.95.08-.64 0-1.11-.12-1.41-.35-.3-.23-.5-.64-.59-1.21h-.01zm.03-4.88h-3.97c-.83 0-1.48.19-1.97.57s-.73 1.11-.73 2.19c0 .76.15 1.27.45 1.54.3.27.84.4 1.63.4.34 0 .72-.04 1.12-.13.4-.09.81-.21 1.23-.36.41-.15.81-.32 1.2-.5.39-.18.73-.36 1.04-.54v-3.17zM216.39 51.85c-.36.07-.76.17-1.19.28-.43.12-.85.23-1.26.35-.4.12-.78.23-1.12.35-.34.12-.59.22-.76.31v9.53c0 .31-.16.46-.46.46h-1.18c-.29 0-.44-.15-.44-.46V50.44c0-.31.15-.46.44-.46h1.15c.33 0 .49.15.49.46v1.11l.05.05c.18-.14.43-.3.74-.47.32-.17.66-.34 1.04-.51.38-.17.76-.32 1.16-.46.4-.13.76-.24 1.11-.31.16-.04.27-.03.32.01s.1.15.13.31l.11 1.13c.07.33-.05.51-.33.55zM221.89 67.51c-.04.13-.09.22-.16.28-.07.06-.2.09-.38.09h-1.24c-.25 0-.33-.14-.24-.43l1.57-4.32-4.75-12.72a.445.445 0 0 1-.01-.3c.03-.09.1-.14.23-.14h1.43c.14 0 .24.03.3.09.05.06.1.16.13.28l2.21 6.18 1.46 4.13c.04-.11.14-.39.31-.85s.35-.95.53-1.47c.2-.59.42-1.26.68-2l2.05-6.02c.07-.23.22-.35.43-.35h1.46c.22 0 .28.14.19.41l-6.2 17.14zM247.49 58.16c0 .97-.16 1.79-.49 2.46-.32.67-.77 1.2-1.34 1.61-.57.41-1.22.7-1.97.88s-1.53.27-2.36.27c-.38 0-.8-.02-1.27-.05-.47-.04-.94-.09-1.4-.15-.47-.06-.92-.14-1.36-.23-.44-.09-.81-.2-1.09-.32-.2-.09-.32-.18-.35-.27a.44.44 0 0 1 0-.32l.19-.76c.05-.2.21-.29.46-.27.38.05.79.1 1.24.15s.9.09 1.34.12c.44.04.85.06 1.24.08.39.02.72.03.99.03 1.35 0 2.37-.25 3.06-.76.69-.5 1.04-1.21 1.04-2.13 0-.61-.06-1.12-.18-1.53-.12-.4-.32-.74-.61-1s-.67-.47-1.16-.62c-.49-.15-1.09-.29-1.81-.42-.81-.13-1.57-.28-2.27-.47-.7-.19-1.31-.45-1.84-.78-.52-.33-.93-.78-1.23-1.34-.3-.56-.45-1.29-.45-2.19 0-1.66.5-2.92 1.49-3.78.99-.86 2.41-1.3 4.27-1.3.27 0 .6.01 1 .03.4.02.82.05 1.27.11.45.05.9.13 1.35.22s.85.21 1.21.35c.2.07.32.16.35.26.04.1.04.21 0 .34l-.16.73c-.04.09-.09.17-.15.24-.06.07-.18.1-.36.08-.59-.09-1.3-.18-2.11-.26-.81-.08-1.61-.12-2.4-.12-.7 0-1.29.07-1.77.22-.48.14-.85.35-1.13.61s-.48.58-.59.96c-.12.38-.18.79-.18 1.24 0 .54.07.97.2 1.28.14.31.36.57.66.77.31.2.7.36 1.19.47.49.12 1.08.24 1.79.37.78.14 1.51.31 2.21.49s1.3.46 1.81.82.92.86 1.22 1.48.45 1.41.45 2.4zM260.23 55.68c.02.43-.05.8-.2 1.09-.15.3-.48.45-.99.45h-7.61c.02.8.09 1.48.22 2.03.13.54.33.98.62 1.31.29.33.65.56 1.09.7.44.13.98.2 1.61.2.27 0 .58-.01.92-.04.34-.03.68-.05 1.03-.08l.99-.09c.31-.04.59-.07.82-.11.18-.02.32-.01.42.03.1.04.17.14.2.32l.11.6c.05.26-.04.44-.3.55s-.56.21-.92.3-.74.17-1.13.23c-.4.06-.79.11-1.19.15-.4.04-.76.05-1.08.05-1.24 0-2.23-.19-2.96-.58-.73-.39-1.28-.89-1.66-1.53-.38-.63-.63-1.35-.74-2.17-.12-.82-.18-1.66-.18-2.52 0-.65.05-1.37.16-2.17.11-.8.35-1.55.73-2.24.38-.69.93-1.27 1.65-1.74.72-.47 1.7-.7 2.94-.7 1.15 0 2.08.17 2.78.51.7.34 1.25.79 1.63 1.35.39.56.65 1.2.78 1.92.14.71.23 1.44.26 2.18zm-2.18-.16c0-.47-.04-.94-.12-1.42s-.24-.9-.47-1.28c-.23-.38-.57-.68-1-.92-.43-.23-1.01-.35-1.73-.35-.59 0-1.09.09-1.5.28-.41.19-.73.46-.99.8s-.44.76-.57 1.24c-.13.49-.21 1.04-.24 1.65h6.62zM269.14 51.85c-.36.07-.76.17-1.19.28-.43.12-.85.23-1.26.35-.4.12-.78.23-1.12.35-.34.12-.59.22-.76.31v9.53c0 .31-.16.46-.46.46h-1.18c-.29 0-.44-.15-.44-.46V50.44c0-.31.15-.46.44-.46h1.15c.33 0 .49.15.49.46v1.11l.05.05c.18-.14.43-.3.74-.47.32-.17.66-.34 1.04-.51.38-.17.76-.32 1.16-.46.4-.13.76-.24 1.11-.31.16-.04.27-.03.32.01s.1.15.13.31l.11 1.13c.08.33-.04.51-.33.55z"/><path class="st1" d="M276.14 62.78c-.09.23-.24.35-.46.35h-1.24c-.14 0-.24-.03-.3-.08s-.1-.13-.13-.24l-4.73-12.39a.445.445 0 0 1-.01-.3c.03-.09.1-.14.23-.14h1.49c.14 0 .24.03.28.09.04.06.09.16.15.28l2.7 7.56.43 1.3c.11.34.21.66.31.95.1.29.17.48.2.57h.05c.02-.07.08-.26.18-.58.1-.31.21-.64.34-.99.14-.4.3-.84.46-1.32l2.65-7.51c.05-.14.1-.24.15-.28s.13-.07.26-.07h1.48c.25 0 .32.14.19.41l-4.68 12.39zM284.77 46.47c0 .34-.07.63-.2.86-.13.23-.46.35-.96.35-.52 0-.85-.12-.97-.36s-.19-.53-.19-.85c0-.34.08-.62.23-.84.15-.22.46-.32.93-.32.49 0 .8.1.94.31.15.21.22.49.22.85zm-.16 16.2c0 .31-.14.46-.43.46h-1.11c-.32 0-.49-.15-.49-.46V50.44c0-.2.04-.32.12-.38.08-.05.2-.08.37-.08h1.11c.29 0 .43.15.43.46v12.23zM296.65 62.73c-.5.23-1.14.4-1.9.49-.77.09-1.49.13-2.17.13-1.19 0-2.14-.18-2.85-.54-.71-.36-1.26-.85-1.65-1.48-.39-.63-.64-1.36-.76-2.19-.12-.83-.18-1.72-.18-2.67 0-.86.06-1.7.18-2.51.12-.81.37-1.53.76-2.16.39-.63.94-1.13 1.65-1.51.71-.38 1.66-.57 2.85-.57a20.868 20.868 0 0 1 2.04.12c.37.05.73.11 1.09.19.36.08.68.18.97.31.14.05.23.13.26.24.03.11.03.22.01.32l-.11.62c-.04.14-.12.23-.26.27s-.28.04-.45.03c-.56-.05-1.17-.11-1.85-.17s-1.26-.09-1.74-.09c-.61 0-1.13.09-1.54.26s-.74.45-.99.82-.42.88-.53 1.5c-.11.62-.16 1.39-.16 2.31 0 .99.05 1.81.16 2.46.11.65.29 1.17.54 1.55.25.39.58.66 1 .82s.92.24 1.51.24c.22 0 .48-.01.8-.03.32-.02.64-.04.97-.07.33-.03.67-.05 1.01-.08.34-.03.65-.06.92-.09.16-.02.29-.01.39.03.1.04.17.14.2.32l.11.57c.08.24-.02.43-.28.56zM308.91 55.68c.02.43-.05.8-.2 1.09-.15.3-.48.45-.99.45h-7.61c.02.8.09 1.48.22 2.03.13.54.33.98.62 1.31.29.33.65.56 1.09.7.44.13.98.2 1.61.2.27 0 .58-.01.92-.04.34-.03.68-.05 1.03-.08l.99-.09c.31-.04.59-.07.82-.11.18-.02.32-.01.42.03.1.04.17.14.2.32l.11.6c.05.26-.04.44-.3.55s-.56.21-.92.3-.74.17-1.13.23c-.4.06-.79.11-1.19.15-.4.04-.76.05-1.08.05-1.24 0-2.23-.19-2.96-.58-.73-.39-1.28-.89-1.66-1.53-.38-.63-.63-1.35-.74-2.17-.12-.82-.18-1.66-.18-2.52 0-.65.05-1.37.16-2.17.11-.8.35-1.55.73-2.24.38-.69.93-1.27 1.65-1.74.72-.47 1.7-.7 2.94-.7 1.15 0 2.08.17 2.78.51.7.34 1.25.79 1.63 1.35.39.56.65 1.2.78 1.92.14.71.23 1.44.26 2.18zm-2.18-.16c0-.47-.04-.94-.12-1.42s-.24-.9-.47-1.28c-.23-.38-.57-.68-1-.92-.43-.23-1.01-.35-1.73-.35-.59 0-1.09.09-1.5.28-.41.19-.73.46-.99.8s-.44.76-.57 1.24c-.13.49-.21 1.04-.24 1.65h6.62z"/></g><g><path class="st1" d="M86.19 51.88l1.79 6.08h.14l1.74-6.13 1.88-6.44c.09-.28.22-.49.38-.64.16-.15.4-.22.71-.22h3.25c.28 0 .42.08.43.22.01.15-.01.31-.07.48l-5.68 17.11c-.09.24-.21.44-.35.59-.14.15-.42.22-.85.22H86.4c-.37 0-.64-.07-.81-.2-.17-.13-.29-.33-.36-.59l-5.66-17.14c-.09-.21-.11-.37-.06-.5s.22-.2.5-.2h3c.37 0 .64.06.8.17s.28.32.35.62l2.03 6.57zM103.19 63.38c-.3 0-.67-.01-1.12-.04s-.92-.08-1.43-.14c-.5-.07-1.01-.15-1.53-.27-.51-.11-.99-.25-1.44-.42-.47-.19-.73-.36-.78-.53s-.06-.38 0-.64l.34-1.62c.09-.37.21-.58.34-.62.13-.04.38-.03.76.03.34.04.71.08 1.12.13.41.05.83.09 1.26.13s.86.07 1.29.1c.43.03.84.04 1.23.04.95 0 1.65-.15 2.09-.45s.66-.75.66-1.34c0-.34-.05-.61-.14-.83-.09-.21-.25-.4-.46-.55-.21-.15-.49-.27-.81-.38-.33-.1-.72-.2-1.19-.29-.8-.17-1.6-.37-2.38-.6s-1.48-.56-2.1-.97c-.62-.41-1.12-.94-1.5-1.6-.38-.65-.57-1.48-.57-2.49 0-.92.16-1.73.48-2.44.32-.71.77-1.3 1.36-1.78.59-.48 1.3-.84 2.14-1.09s1.77-.38 2.8-.38c.26 0 .6 0 1.02.01.42.01.88.04 1.37.1.49.06 1 .14 1.51.25s.99.26 1.44.45c.47.17.73.34.78.52.06.18.06.4.03.66l-.39 1.65c-.04.19-.08.32-.14.41-.06.08-.13.14-.22.17s-.21.04-.35.03c-.14-.01-.3-.02-.49-.04-.63-.09-1.28-.17-1.95-.22-.66-.06-1.42-.08-2.28-.08-.82 0-1.43.13-1.83.39-.4.26-.6.69-.6 1.29 0 .3.04.54.13.73.08.19.22.35.42.48.2.13.45.24.77.32.32.08.71.17 1.18.27.8.17 1.6.36 2.38.59s1.48.54 2.1.95c.62.41 1.12.96 1.5 1.64.38.68.57 1.57.57 2.67 0 1.1-.21 2.03-.62 2.77-.41.75-.96 1.34-1.64 1.79s-1.47.77-2.35.97c-.92.18-1.83.27-2.76.27z"/></g></svg>
