<svg version="1.1" id="Livello_1" xmlns="http://www.w3.org/2000/svg" x="0" y="0" viewBox="0 0 305.9 76" xml:space="preserve"><style>.mv0{fill:#626873}.mv2{fill:#fbfdff}.mv3{fill:#b1d2eb}.mv6{fill:#fff}.mv7{fill:#43484e}</style><path class="mv0" d="M91.2 35.8h-5.5c-3.1 0-5.6-2.5-5.6-5.6V21c0-3.1 2.5-5.6 5.6-5.6h5.5c.6 0 1 .5 1 1 0 .6-.5 1-1 1.1h-5.5c-2 0-3.5 1.6-3.5 3.5v9.2c0 1.9 1.6 3.5 3.5 3.5h5.5c.6 0 1 .5 1 1 0 .7-.4 1.1-1 1.1M106.6 35.8h-6.5c-3.1 0-5.6-2.5-5.6-5.6V21c0-3.1 2.5-5.6 5.6-5.6h2.6c3.1 0 5.6 2.5 5.6 5.6v5.1h-9.8c-.6 0-1-.5-1-1 0-.6.5-1 1-1h7.7v-3c0-1.9-1.6-3.5-3.5-3.5h-2.6c-1.9 0-3.5 1.6-3.5 3.5v9.2c0 1.9 1.6 3.5 3.5 3.5h6.5c.6 0 1 .5 1 1 .1.6-.4 1-1 1M168.1 35.7h-3.2c-1.6 0-3-.8-4.1-2.1-1-1.3-1.6-3-1.6-4.9 0-3.7 2.3-6.3 5.6-6.3h4.6c.6 0 1 .5 1 1 0 .6-.5 1-1 1h-4.6c-2.1 0-3.5 1.7-3.5 4.2 0 2.7 1.6 4.9 3.5 4.9h3.2c1.9 0 3.5-1.6 3.5-3.5v-9.2c0-1.9-1.6-3.5-3.5-3.5h-6c-.6 0-1-.5-1-1 0-.6.5-1 1-1h6c3.1 0 5.6 2.5 5.6 5.6v9.2c.1 3.1-2.4 5.6-5.5 5.6M150.7 35.8h-3.3c-3.1 0-5.6-2.5-5.6-5.6V21c0-3.1 2.5-5.6 5.6-5.6h4.7c.6 0 1 .5 1 1 0 .6-.5 1-1 1h-4.7c-1.9 0-3.5 1.6-3.5 3.5v9.2c0 1.9 1.6 3.5 3.5 3.5h3.3c1.9 0 3.5-1.6 3.5-3.5V7.3c0-.6.5-1 1-1 .6 0 1 .5 1 1v22.9c.2 3.1-2.4 5.6-5.5 5.6M118.7 35.8h-6c-.6 0-1-.5-1-1 0-.6.5-1 1-1h6c1.9 0 3.4-1.5 3.4-3.4 0-1.6-1.1-3-2.7-3.3l-2.9-.6c-.5-.1-1.1-.3-1.3-.4-2.1-.8-3.5-2.9-3.5-5.1 0-3 2.5-5.5 5.5-5.5h4.5c.6 0 1 .5 1 1 0 .6-.5 1-1 1h-4.5c-1.9 0-3.4 1.5-3.4 3.4 0 1.4.9 2.7 2.2 3.2.1 0 .6.2 1 .3l2.9.6c2.5.5 4.4 2.8 4.4 5.4-.1 3-2.6 5.4-5.6 5.4M133.3 35.8h-6c-.6 0-1-.5-1-1 0-.6.5-1 1-1h6c1.9 0 3.4-1.5 3.4-3.4 0-1.6-1.1-3-2.7-3.3l-2.9-.6c-.5-.1-1.1-.3-1.3-.4-2.1-.8-3.5-2.9-3.5-5.1 0-3 2.5-5.5 5.5-5.5h4.5c.6 0 1 .5 1 1 0 .6-.5 1-1 1h-4.5c-1.9 0-3.4 1.5-3.4 3.4 0 1.4.9 2.7 2.2 3.2.1 0 .6.2 1 .3l2.9.6c2.5.5 4.4 2.8 4.4 5.4-.1 3-2.5 5.4-5.6 5.4"/><g><path d="M66.9 27.7l-9.9-10-.2-.2L49 9.9c-6.8-6.8-17.8-6.8-24.6 0l-8.6 8.6-8 8c-2.1 2.1-3.6 4.7-4.4 7.3-1.7 5.9-.2 12.6 4.5 17.2l9.9 9.9.2.2 7.8 7.7c6.8 6.8 17.8 6.8 24.6 0L67 52.2c6.7-6.7 6.7-17.8-.1-24.5" fill="#a0cae7"/><path class="mv2" d="M36.7 4.8c-4.5 0-8.9 1.7-12.3 5.1 3.4-3.4 7.9-5.1 12.3-5.1 4.5 0 8.9 1.7 12.3 5.1l7.8 7.7.2.2 5.1 5.1-5.1-5.2-.2-.2L49 9.9c-3.4-3.4-7.8-5.1-12.3-5.1M3.4 33.9s0 .1 0 0c0 .1 0 0 0 0m0 .2s0 .1 0 0c0 .1 0 0 0 0m0 .2c-.1 0-.1 0 0 0-.1 0-.1 0 0 0m-.1 0s0 .1 0 0c0 .1 0 0 0 0m0 .2c0 .1-.1.3-.1.4 0-.1.1-.2.1-.4m-.1.5c0 .1 0 .1 0 0 0 .1 0 .1 0 0m0 .1s-.1 0 0 0c-.1 0 0 0 0 0m-.1.1c0 .1 0 .1 0 0 0 .1 0 .1 0 0M3.1 35.5s0 .1 0 0c0 .1 0 0 0 0m-.1.7"/><path class="mv3" d="M36.7 4.8c-4.5 0-8.9 1.7-12.3 5.1l-8.6 8.6-8 8c-2 2-3.5 4.4-4.3 7 .7-2.2 1.8-4.3 3.4-6.1l3.4-3.4 8.6-8.6c3.4-3.4 7.8-5.1 12.3-5.1 4.5 0 8.9 1.7 12.3 5.1l7.8 7.7.2.2 9.9 9.9c2 2 3.4 4.3 4.2 6.8 1.9-5.8.7-12.3-3.5-17.1L57 17.7l-.2-.2L49 9.9c-3.4-3.4-7.8-5.1-12.3-5.1M3.6 33.4c0 .1 0 .1 0 0 0 .1 0 .1 0 0m0 .2c-.1 0-.1 0 0 0-.1 0-.1 0 0 0m-.1.1"/><path class="mv2" d="M3.6 33.5s0 .1 0 0c0 .1 0 0 0 0M49.7 69.4"/><path class="mv3" d="M3.5 33.9s-.1 0 0 0c-.1 0 0 0 0 0M3.4 34.2s0 .1 0 0c0 .1 0 0 0 0M3.1 35.6s-.1.1 0 0c-.1.1 0 0 0 0m-.1.1v0m0 .2c0 .1 0 .1 0 0 0 .1 0 .1 0 0m0 .2c0 .1 0 .1 0 0 0 .1 0 .1 0 0m0 .1c-.1.8-.2 1.7-.2 2.5 0 4.5 1.7 8.9 5.1 12.3l9.9 9.9.2.2 7.8 7.7c3.4 3.4 7.9 5.1 12.3 5.1 4.2 0 8.3-1.5 11.6-4.5l.6-.6L62.1 57c4.3-4.8 5.4-11.3 3.5-17.1-.8 2.5-2.2 4.8-4.2 6.7L44.9 63.3c-3.4 3.4-7.8 5.1-12.3 5.1-4.5 0-8.9-1.7-12.3-5.1l-7.8-7.7-.2-.2L7 50.1c-3.4-4-4.7-9.1-4-13.9"/><path d="M31.2 10.3c-4.5 0-8.9 1.7-12.3 5.1L10.4 24 7 27.4c-1.6 1.8-2.7 3.9-3.4 6.1v1.2c0 .1-.1.3-.1.4V36C2.3 41 3.6 46.1 7 50.1l5.3 5.3.2.2 7.8 7.7c3.4 3.4 7.9 5.1 12.3 5.1 4.5 0 8.9-1.7 12.3-5.1l16.6-16.6c2-2 3.3-4.3 4.2-6.7-.8-2.5-2.2-4.8-4.2-6.8l-9.9-9.9-.2-.2-7.8-7.7c-3.4-3.4-7.9-5.1-12.4-5.1m6.9 54.1c-2.1 0-4.1-.8-5.6-2.3l-9.9-9.8-.1-.1v-.1l-7.8-7.8c-1.1-1.1-1.9-2.5-2.2-4.1-.5-2.6.3-5.2 2.1-7.1l8-8 8.6-8.6c1.5-1.5 3.4-2.3 5.5-2.3s4.1.8 5.6 2.3l9.9 9.8.1.1 7.9 7.9c1.5 1.5 2.3 3.5 2.3 5.6 0 2.1-.8 4.1-2.3 5.6L43.6 62.1c-1.5 1.5-3.4 2.3-5.5 2.3" fill="#bbd7ed"/><path d="M38.1 63.5c-1.9 0-3.6-.7-5-2.1l-10-9.9-7.9-7.9c-1-1-1.6-2.2-1.9-3.6-.4-2.3.3-4.6 1.9-6.2l16.6-16.6c1.3-1.3 3-2 4.9-2 1.9 0 3.6.7 5 2.1l9.9 9.9.1.1 7.8 7.8c2.7 2.7 2.7 7.1 0 9.8L43 61.4c-1.3 1.4-3.1 2.1-4.9 2.1" fill="#74c0eb"/><path class="mv6" d="M36.7 14.3c-2.1 0-4.1.8-5.5 2.3l-8.6 8.6-8 8c-1.8 1.8-2.6 4.5-2.1 7.1.3 1.5 1 2.9 2.2 4.1l7.8 7.8v.1l.1.1 9.9 9.8c1.5 1.5 3.5 2.3 5.6 2.3 2.1 0 4.1-.8 5.5-2.3l16.6-16.6c1.5-1.5 2.3-3.5 2.3-5.6 0-2.1-.8-4.1-2.3-5.6l-7.9-7.9-.1-.1-9.9-9.8c-1.5-1.5-3.5-2.3-5.6-2.3m0 1.8c1.6 0 3.1.6 4.3 1.8l10 9.9 7.9 7.9c2.4 2.4 2.4 6.2 0 8.6L42.3 60.8c-1.2 1.2-2.7 1.8-4.3 1.8-1.6 0-3.1-.6-4.3-1.8l-10-9.9-7.8-7.9c-.9-.9-1.4-2-1.7-3.1-.4-1.9.2-4 1.6-5.4l8-8 8.6-8.6c1.2-1.2 2.8-1.8 4.3-1.8"/></g><g><path class="mv7" d="M139.1 63.1h-1c-.3 0-.4-.1-.4-.4v-12h-.1l-.8 1.9-3.5 7.5c-.1.2-.3.3-.5.3h-.7c-.1 0-.3 0-.3-.1-.1 0-.1-.1-.2-.2l-3.6-7.8-.7-1.7v12c0 .3-.1.4-.4.4h-1c-.3 0-.4-.1-.4-.4V46.8c0-.3.1-.4.4-.4h1.1c.2 0 .3 0 .3.1.1.1.1.2.2.3l4 8.7 1.1 2.6 1.2-2.7 4-8.6c.1-.1.2-.2.2-.3.1-.1.2-.1.4-.1h.9c.2 0 .4.1.4.4v15.9c-.2.3-.3.4-.6.4zM151.5 56.2c0 .4 0 .7-.2 1-.1.3-.4.4-.9.4h-6.8c0 .8.1 1.4.2 1.9s.3.9.6 1.2c.3.3.6.5 1 .7.4.1.9.2 1.4.2h.8c.3 0 .6-.1.9-.1.3 0 .6-.1.9-.1.3 0 .5-.1.7-.1h.4c.1 0 .1.1.2.3l.1.6c0 .2 0 .4-.3.5-.2.1-.5.2-.8.3-.3.1-.7.2-1 .2-.4.1-.7.1-1.1.1-.4 0-.7.1-1 .1-1.1 0-2-.2-2.6-.5-.6-.4-1.1-.8-1.5-1.4-.3-.6-.6-1.3-.7-2s-.2-1.6-.2-2.4c0-.6 0-1.3.1-2s.3-1.4.6-2.1c.3-.6.8-1.2 1.5-1.6.6-.4 1.5-.7 2.6-.7 1 0 1.8.2 2.5.5.6.3 1.1.7 1.5 1.3.3.5.6 1.1.7 1.8s.4 1.2.4 1.9zm-1.9-.2c0-.4 0-.9-.1-1.3s-.2-.8-.4-1.2-.5-.6-.9-.9-.9-.3-1.5-.3c-.5 0-1 .1-1.3.3-.4.2-.7.4-.9.7-.2.3-.4.7-.5 1.2-.1.5-.2 1-.2 1.5h5.8zM159.7 62.3c0 .2-.1.4-.2.5-.1.1-.3.2-.6.2-.2.1-.5.1-.7.2-.3 0-.5.1-.8.1h-.6c-.5 0-.9-.1-1.3-.2s-.6-.3-.8-.5c-.2-.2-.3-.5-.4-.8s-.1-.7-.1-1.1v-8.2h-1.3c-.3 0-.4-.1-.4-.4v-.7c0-.3.1-.5.4-.5h1.3v-2.7c0-.2 0-.3.1-.3.1-.1.2-.1.3-.2l1-.3c.3-.1.4 0 .4.4v3.1h2.7c.2 0 .3 0 .3.1s.1.2.1.3v.7c0 .2 0 .3-.1.3 0 .1-.2.1-.3.1H156V60c0 .3 0 .5.1.7 0 .2.1.3.3.5.1.1.3.2.5.2s.5.1.9.1h.7c.3 0 .6 0 .7-.1h.4c.1 0 .1.1.1.3v.6zM167.8 61.8c-.6.4-1.3.7-2 1.1-.7.3-1.6.5-2.5.5-1.2 0-2-.3-2.5-.9s-.7-1.5-.7-2.6c0-1.4.3-2.5 1-3.2.7-.7 1.8-1 3.4-1h3.3v-.9c0-.9-.2-1.6-.6-1.9-.4-.4-1.1-.5-2.2-.5h-.8c-.3 0-.6 0-.9.1s-.6.1-.9.1c-.3 0-.6.1-.8.1-.3.1-.4 0-.5-.2l-.1-.7v-.3c0-.1.2-.2.3-.3.2-.1.5-.2.9-.2.3-.1.7-.1 1.1-.2.4 0 .7-.1 1.1-.1h1c1 0 1.7.1 2.3.3.6.2 1 .5 1.3.9.3.4.5.9.6 1.4s.1 1.2.1 1.8V61.3c0 .1.1.2.1.3.1.1.1.1.3.1s.3 0 .5.1c.3 0 .4.1.4.3v.6c0 .1 0 .2-.1.3-.1.1-.2.1-.4.2-.3.1-.6.1-.8.1-.6 0-1-.1-1.3-.3-.3-.3-.5-.7-.6-1.2zm0-4.6h-3.5c-.7 0-1.3.2-1.8.5-.4.4-.6 1-.6 2 0 .7.1 1.2.4 1.4.3.3.7.4 1.5.4.3 0 .6 0 1-.1s.7-.2 1.1-.3c.4-.1.7-.3 1.1-.5.3-.2.7-.3.9-.5v-2.9zM181.6 62.7c0 .3-.1.4-.4.4h-1c-.1 0-.2 0-.3-.1-.1 0-.1-.2-.1-.4v-.9h-.1c-.2.1-.4.3-.7.5-.3.2-.6.4-1 .5-.4.2-.7.3-1.2.4-.4.1-.8.2-1.2.2-.8 0-1.4-.1-1.9-.4-.5-.3-.9-.7-1.2-1.2s-.5-1.2-.6-2c-.1-.8-.2-1.7-.2-2.7 0-1.1.1-2 .2-2.8.1-.8.4-1.5.8-2s.8-1 1.5-1.2c.6-.3 1.4-.4 2.3-.4.4 0 .9.1 1.5.2s1.2.3 1.8.6v-5.5c0-.2 0-.3.1-.4 0-.1.2-.1.3-.1h1c.2 0 .3 0 .3.1s.1.2.1.4v16.8zm-1.8-9.8c-.7-.2-1.3-.3-1.8-.4-.6-.1-1.1-.1-1.6-.1s-.9.1-1.3.2c-.3.2-.6.4-.8.8s-.4.9-.4 1.5c-.1.6-.1 1.4-.1 2.3 0 1 0 1.7.1 2.3s.2 1 .4 1.4c.2.3.4.5.7.6.3.1.6.2 1 .2.3 0 .6-.1 1-.2s.7-.2 1.1-.4.7-.3 1.1-.5l.8-.4v-7.3zM191.2 61.8c-.6.4-1.3.7-2 1.1-.7.3-1.6.5-2.5.5-1.2 0-2-.3-2.5-.9s-.7-1.5-.7-2.6c0-1.4.3-2.5 1-3.2.7-.7 1.8-1 3.4-1h3.3v-.9c0-.9-.2-1.6-.6-1.9-.4-.4-1.1-.5-2.2-.5h-.8c-.3 0-.6 0-.9.1s-.6.1-.9.1c-.3 0-.6.1-.8.1-.3.1-.4 0-.5-.2l-.1-.7v-.3c0-.1.2-.2.3-.3.2-.1.5-.2.9-.2.3-.1.7-.1 1.1-.2.4 0 .7-.1 1.1-.1h1c1 0 1.7.1 2.3.3.6.2 1 .5 1.3.9.3.4.5.9.6 1.4s.1 1.2.1 1.8V61.3c0 .1.1.2.1.3.1.1.1.1.3.1s.3 0 .5.1c.3 0 .4.1.4.3v.6c0 .1 0 .2-.1.3-.1.1-.2.1-.4.2-.3.1-.6.1-.8.1-.6 0-1-.1-1.3-.3-.3-.3-.5-.7-.6-1.2zm0-4.6h-3.5c-.7 0-1.3.2-1.8.5-.4.4-.6 1-.6 2 0 .7.1 1.2.4 1.4.3.3.7.4 1.5.4.3 0 .6 0 1-.1s.7-.2 1.1-.3c.4-.1.7-.3 1.1-.5.3-.2.7-.3.9-.5v-2.9zM201.9 62.3c0 .2-.1.4-.2.5-.1.1-.3.2-.6.2-.2.1-.5.1-.7.2-.3 0-.5.1-.8.1h-.6c-.5 0-.9-.1-1.3-.2s-.6-.3-.8-.5c-.2-.2-.3-.5-.4-.8s-.1-.7-.1-1.1v-8.2h-1.3c-.3 0-.4-.1-.4-.4v-.7c0-.3.1-.5.4-.5h1.3v-2.7c0-.2 0-.3.1-.3.1-.1.2-.1.3-.2l1-.3c.3-.1.4 0 .4.4v3.1h2.7c.2 0 .3 0 .3.1s.1.2.1.3v.7c0 .2 0 .3-.1.3 0 .1-.2.1-.3.1h-2.7V60c0 .3 0 .5.1.7 0 .2.1.3.3.5.1.1.3.2.5.2s.5.1.9.1h.7c.3 0 .6 0 .7-.1h.4c.1 0 .1.1.1.3v.6zM210.1 61.8c-.6.4-1.3.7-2 1.1-.7.3-1.6.5-2.5.5-1.2 0-2-.3-2.5-.9s-.7-1.5-.7-2.6c0-1.4.3-2.5 1-3.2.7-.7 1.8-1 3.4-1h3.3v-.9c0-.9-.2-1.6-.6-1.9-.4-.4-1.1-.5-2.2-.5h-.8c-.3 0-.6 0-.9.1s-.6.1-.9.1c-.3 0-.6.1-.8.1-.3.1-.4 0-.5-.2l-.1-.7v-.3c0-.1.2-.2.3-.3.2-.1.5-.2.9-.2.3-.1.7-.1 1.1-.2.4 0 .7-.1 1.1-.1h1c1 0 1.7.1 2.3.3.6.2 1 .5 1.3.9.3.4.5.9.6 1.4s.1 1.2.1 1.8V61.3c0 .1.1.2.1.3.1.1.1.1.3.1s.3 0 .5.1c.3 0 .4.1.4.3v.6c0 .1 0 .2-.1.3-.1.1-.2.1-.4.2-.3.1-.6.1-.8.1-.6 0-1-.1-1.3-.3-.3-.3-.5-.7-.6-1.2zm0-4.6h-3.5c-.7 0-1.3.2-1.8.5-.4.4-.6 1-.6 2 0 .7.1 1.2.4 1.4.3.3.7.4 1.5.4.3 0 .6 0 1-.1s.7-.2 1.1-.3c.4-.1.7-.3 1.1-.5.3-.2.7-.3.9-.5v-2.9zM225.6 60.6l1.9-6 2.4-7.8c.1-.2.2-.4.5-.4h1.2c.2 0 .3.1.2.4l-5 16c-.1.2-.2.4-.5.4H225c-.1 0-.2 0-.3-.1-.1 0-.1-.1-.1-.3l-5-16c-.1-.3 0-.4.2-.4h1.2c.1 0 .2 0 .3.1.1.1.1.1.1.3l2.4 7.8 1.8 6zM239.8 61.8c-.6.4-1.3.7-2 1.1-.7.3-1.6.5-2.5.5-1.2 0-2-.3-2.5-.9s-.8-1.5-.8-2.6c0-1.4.3-2.5 1-3.2.7-.7 1.8-1 3.4-1h3.3v-.9c0-.9-.2-1.6-.6-1.9-.4-.4-1.1-.5-2.2-.5h-.8c-.3 0-.6 0-.9.1s-.6.1-.9.1c-.3 0-.6.1-.8.1-.3.1-.4 0-.5-.2l-.1-.7v-.3c0-.1.2-.2.3-.3.2-.1.5-.2.9-.2.3-.1.7-.1 1.1-.2.4 0 .7-.1 1.1-.1h1c1 0 1.7.1 2.3.3.6.2 1 .5 1.3.9.3.4.5.9.6 1.4s.1 1.2.1 1.8V61.3c0 .1.1.2.1.3.1.1.1.1.3.1s.3 0 .5.1c.3 0 .4.1.4.3v.6c0 .1 0 .2-.1.3-.1.1-.2.1-.4.2-.3.1-.6.1-.8.1-.6 0-1-.1-1.3-.3-.2-.3-.4-.7-.5-1.2zm0-4.6h-3.5c-.7 0-1.3.2-1.8.5-.4.4-.6 1-.6 2 0 .7.1 1.2.4 1.4.3.3.7.4 1.5.4.3 0 .6 0 1-.1s.7-.2 1.1-.3c.4-.1.7-.3 1.1-.5.3-.2.7-.3.9-.5v-2.9zM247.9 62.6c0 .2-.1.3-.2.4-.2.1-.4.2-.6.2-.2 0-.5.1-.7.1-.4 0-.7 0-1-.2-.3-.1-.5-.2-.6-.4-.1-.2-.2-.4-.3-.7-.1-.3-.1-.5-.1-.8V45.8c0-.3.1-.4.4-.4h1c.1 0 .3 0 .3.1.1 0 .1.2.1.4v14.8c0 .4.1.7.3.8.2.1.5.1.9.1.3 0 .4.1.4.3l.1.7zM251.5 47.6c0 .3-.1.6-.2.8s-.4.3-.9.3-.8-.1-.9-.3c-.1-.2-.2-.5-.2-.8 0-.3.1-.6.2-.8.1-.2.4-.3.8-.3s.7.1.8.3c.3.2.4.4.4.8zm-.2 15.1c0 .3-.1.4-.4.4h-1c-.3 0-.4-.1-.4-.4V51.3c0-.2 0-.3.1-.4s.2-.1.3-.1h1c.3 0 .4.1.4.4v11.5zM263.4 62.7c0 .3-.1.4-.4.4h-1c-.1 0-.2 0-.3-.1-.1 0-.1-.2-.1-.4v-.9h-.1c-.2.1-.4.3-.7.5-.3.2-.6.4-1 .5-.4.2-.7.3-1.2.4-.4.1-.8.2-1.2.2-.8 0-1.4-.1-1.9-.4-.5-.3-.9-.7-1.2-1.2s-.5-1.2-.6-2c-.1-.8-.2-1.7-.2-2.7 0-1.1.1-2 .2-2.8.1-.8.4-1.5.8-2s.8-1 1.5-1.2c.6-.3 1.4-.4 2.3-.4.4 0 .9.1 1.5.2s1.2.3 1.8.6v-5.5c0-.2 0-.3.1-.4 0-.1.2-.1.3-.1h1c.2 0 .3 0 .3.1s.1.2.1.4v16.8zm-1.8-9.8c-.7-.2-1.3-.3-1.8-.4-.6-.1-1.1-.1-1.6-.1s-.9.1-1.3.2c-.3.2-.6.4-.8.8-.2.4-.4.9-.4 1.5-.1.6-.1 1.4-.1 2.3 0 1 0 1.7.1 2.3s.2 1 .4 1.4c.2.3.4.5.7.6.3.1.6.2 1 .2.3 0 .6-.1 1-.2s.7-.2 1.1-.4.7-.3 1.1-.5l.8-.4v-7.3zM273 61.8c-.6.4-1.3.7-2 1.1-.7.3-1.6.5-2.5.5-1.2 0-2-.3-2.5-.9s-.7-1.5-.7-2.6c0-1.4.3-2.5 1-3.2.7-.7 1.8-1 3.4-1h3.3v-.9c0-.9-.2-1.6-.6-1.9-.4-.4-1.1-.5-2.2-.5h-.8c-.3 0-.6 0-.9.1s-.6.1-.9.1c-.3 0-.6.1-.8.1-.3.1-.4 0-.5-.2l-.1-.7v-.3c0-.1.2-.2.3-.3.2-.1.5-.2.9-.2.3-.1.7-.1 1.1-.2.4 0 .7-.1 1.1-.1h1c1 0 1.7.1 2.3.3.6.2 1 .5 1.3.9.3.4.5.9.6 1.4s.1 1.2.1 1.8V61.3c0 .1.1.2.1.3.1.1.1.1.3.1s.3 0 .5.1c.3 0 .4.1.4.3v.6c0 .1 0 .2-.1.3-.1.1-.2.1-.4.2-.3.1-.6.1-.8.1-.6 0-1-.1-1.3-.3-.3-.3-.5-.7-.6-1.2zm0-4.6h-3.5c-.7 0-1.3.2-1.8.5-.4.4-.6 1-.6 2 0 .7.1 1.2.4 1.4.3.3.7.4 1.5.4.3 0 .6 0 1-.1s.7-.2 1.1-.3c.4-.1.7-.3 1.1-.5.3-.2.7-.3.9-.5v-2.9zM283.7 62.3c0 .2-.1.4-.2.5-.1.1-.3.2-.6.2-.2.1-.5.1-.7.2-.3 0-.5.1-.8.1h-.6c-.5 0-.9-.1-1.3-.2s-.6-.3-.8-.5c-.2-.2-.3-.5-.4-.8s-.1-.7-.1-1.1v-8.2h-1.3c-.3 0-.4-.1-.4-.4v-.7c0-.3.1-.5.4-.5h1.3v-2.7c0-.2 0-.3.1-.3.1-.1.2-.1.3-.2l1-.3c.3-.1.4 0 .4.4v3.1h2.7c.2 0 .3 0 .3.1s.1.2.1.3v.7c0 .2 0 .3-.1.3 0 .1-.2.1-.3.1H280V60c0 .3 0 .5.1.7 0 .2.1.3.3.5.1.1.3.2.5.2s.5.1.9.1h.7c.3 0 .6 0 .7-.1h.4c.1 0 .1.1.1.3v.6zM294 56.8c0 .7 0 1.5-.1 2.3-.1.8-.3 1.5-.6 2.1-.3.6-.8 1.2-1.5 1.6-.7.4-1.6.6-2.8.6-1.1 0-2-.2-2.7-.6-.6-.4-1.1-.9-1.4-1.6-.3-.6-.5-1.3-.6-2.1-.1-.8-.1-1.5-.1-2.3 0-.6 0-1.3.1-2s.3-1.4.6-2c.3-.6.8-1.1 1.4-1.6.6-.4 1.5-.6 2.6-.6s2 .2 2.6.5 1.2.8 1.5 1.4c.4.6.6 1.2.7 2 .2.8.3 1.5.3 2.3zm-1.9.1c0-.8 0-1.4-.1-2s-.2-1.1-.5-1.4c-.2-.4-.6-.7-1-.9-.4-.2-.9-.3-1.6-.3-.6 0-1.1.1-1.5.3-.4.2-.7.5-.9.9-.2.4-.4.9-.5 1.4s-.1 1.2-.1 2 0 1.4.1 2c.1.6.2 1 .5 1.4.2.4.5.7.9.9.4.2.9.3 1.5.3.7 0 1.2-.1 1.6-.3.4-.2.7-.5 1-.8.2-.4.4-.9.5-1.4s.1-1.3.1-2.1zM302.1 52.6c-.3.1-.7.2-1.1.3s-.8.2-1.1.3c-.4.1-.7.2-1 .3-.3.1-.5.2-.7.3v8.9c0 .3-.1.4-.4.4h-1c-.3 0-.4-.1-.4-.4V51.3c0-.3.1-.4.4-.4h1c.3 0 .4.1.4.4v1.1c.2-.1.4-.3.7-.4.3-.2.6-.3.9-.5.3-.2.7-.3 1-.4.4-.1.7-.2 1-.3h.3c.1 0 .1.1.1.3l.1 1.1c.2.2.1.3-.2.4z"/></g><g><path class="mv7" d="M90.3 56.1l2-4.1 2.5-5c.1-.2.3-.4.4-.5.1-.1.4-.2.7-.2H98c.2 0 .4.1.4.2.1.1.1.3.1.4V63c0 .1 0 .3-.1.4-.1.1-.2.2-.4.2h-2.9c-.2 0-.4-.1-.5-.2-.1-.1-.1-.2-.1-.4v-8h-.1l-.9 2-1.5 3.4c-.1.2-.3.4-.4.5s-.4.2-.7.2h-1.3c-.3 0-.5-.1-.7-.2-.1-.1-.3-.3-.4-.5L86.8 57l-.9-2h-.1v8c0 .1 0 .3-.1.4s-.2.2-.5.2h-2.9c-.2 0-.4-.1-.4-.2-.1-.1-.1-.2-.1-.4V46.9c0-.2 0-.3.1-.4.1-.1.2-.2.4-.2h2.2c.3 0 .6 0 .7.1.1.1.3.3.4.5l2.5 5.1 1.9 4h.3zM107 53.1l1.7 5.6h.1l1.6-5.7 1.7-6c.1-.3.2-.5.4-.6s.4-.2.7-.2h3c.3 0 .4.1.4.2s0 .3-.1.4l-5.3 15.9c-.1.2-.2.4-.3.5-.1.1-.4.2-.8.2h-2.9c-.3 0-.6-.1-.8-.2s-.3-.3-.3-.5L100.8 47c-.1-.2-.1-.3-.1-.5.1-.1.2-.2.5-.2h2.8c.3 0 .6.1.7.2.1.1.3.3.3.6l2 6z"/></g><g><path class="mv6" d="M32.2 43.3c0 .1.1.2.1.3v1.9c0 .3-.1.3-.3.2l-9.2-5.1c-.1 0-.2-.1-.2-.2-.1-.1-.1-.2-.1-.4v-1.2c0-.2 0-.3.1-.3l.2-.2 9.2-5c.2-.1.3 0 .3.2v1.8c0 .2 0 .3-.1.3l-.2.2-6.4 3.6v.1l6.4 3.6.2.2zM36 48.9c0 .1-.1.2-.2.3-.1.1-.2.1-.2.1h-1.4c-.3 0-.4-.1-.3-.4 0-.2.1-.6.3-1.2.1-.6.3-1.3.5-2.1s.4-1.7.6-2.7c.2-1 .5-2 .7-3.1.2-1 .5-2 .7-3 .2-1 .4-1.9.6-2.7s.4-1.5.5-2.1c.1-.6.2-1 .3-1.2 0-.3.2-.4.4-.4h1.4c.2 0 .3.2.3.5l-4.2 18zM48.5 39.5v-.1l-6.4-3.6c-.1 0-.2-.1-.2-.2-.1-.1-.1-.2-.1-.3v-1.8c0-.3.1-.3.3-.2l9.2 5 .2.2c.1.1.1.2.1.3V40c0 .2 0 .3-.1.4l-.2.2-9.2 5.1c-.2.1-.3 0-.3-.2v-1.9c0-.2 0-.3.1-.3 0-.1.1-.1.2-.2l6.4-3.6z"/></g></svg>